With: Carmelo Gómez, Judith Diakhate and Celso Bugallo

'The Night of the Sunflowers' is a superior Spanish thriller, telling the story of the tragic aftermath of an attack on a woman, and set against the backdrop of a dying, depopulated rural town. Technically, the film's merits include an evocative score, the subtle use of visual clues, and unmelodramatic acting. But perhaps the strongest aspect of the movie is the way it allows the viewer to see events from different perspectives, and thereby not only drives the evolution of the story, but also gives it a truly three-dimensional quality. The film begins with a segment which, nearing its end, savagely reverses the audience's expectations and sympathies; and thereafter, the story is told in achronological, overlapping fragments, each one offering a different perspective on events. And because of its technical merits, the film's use of this device never damages the naturalistic mood. As events reach their conclusion, you find yourself really caring about the characters, even the ostensibly unattractive ones. 'The Night of the Sunflowers' is a fine film, that never tries to pretend to be more than it is, but which offers rewards through the care with which it portrays its world.
 
http://www.imdb.com/title/tt0456111	

General:

Complete name                    : The Night of the Sunflowers.avi
Format                           : AVI
Format/Info                      : Audio Video Interleave
File size                        : 1.81 GiB
Duration                         : 1h 58mn
Overall bit rate                 : 2 187 Kbps
Writing application              : VirtualDubMod 1.5.10.2 (build 2540/release)
Writing library                  : VirtualDubMod build 2540/release

Video:

Format                           : MPEG-4 Visual
Format profile                   : Simple@L3
Format settings, BVOP            : No
Format settings, QPel            : No
Format settings, GMC             : No warppoints
Format settings, Matrix          : Default (H.263)
Codec ID                         : XVID
Codec ID/Hint                    : XviD
Duration                         : 1h 58mn
Bit rate                         : 1 730 Kbps
Width                            : 704 pixels
Height                           : 396 pixels
Display aspect ratio             : 16:9
Frame rate                       : 25.000 fps
Color space                      : YUV
Chroma subsampling               : 4:2:0
Bit depth                        : 8 bits
Scan type                        : Progressive
Bits/(Pixel*Frame)               : 0.248
Stream size                      : 1.43 GiB (79%)
Writing library                  : XviD 1.1.2 (UTC 2006-11-01)

Audio:

Format                           : AC-3
Format/Info                      : Audio Coding 3
Mode extension                   : CM (complete main)
Codec ID                         : 2000
Duration                         : 1h 58mn
Bit rate mode                    : Constant
Bit rate                         : 448 Kbps
Channel(s)                       : 6 channels
Channel positions                : Front: L C R, Side: L R, LFE
Sampling rate                    : 48.0 KHz
Bit depth                        : 16 bits
Stream size                      : 379 MiB (20%)
Alignment                        : Split accross interleaves
Interleave, duration             : 40 ms (1.00 video frame)
Interleave, preload duration     : 500 ms
